{"title":"Dark House 2014 BDRiP AC3-5 1 XviD-AXED","uid":9738106,"size":1469053276,"categoryP":"video","categoryS":"movies","magnet":"?xt=urn:btih:b9dfc359bbae83f5eef585ac84195b6ae4089924&amp;dn=Dark+House+2014+BDRiP+AC3-5+1+XviD-AXED&amp;tr=udp%3A%2F%2Ftracker.openbittorrent.com%3A80&amp;tr=udp%3A%2F%2Fopen.demonii.com%3A1337&amp;tr=udp%3A%2F%2Ftracker.coppersurfer.tk%3A6969&amp;tr=udp%3A%2F%2Fexodus.desync.com%3A6969","seeders":0,"leechers":1,"uploader":"HeroMaster","files":-1,"time":1394468477,"description":"( ___ )| /|( ____ ( __ \n| ( ) |(  / )| ( /| (  )\n| (___) |  (_) / | (__ | | ) |\n| ___ | ) _ ( | __) | | | |\n| ( ) | / ( )  | ( | | ) |\n| ) ( |( /  )| (____/| (__/ )\n|/ ||/ |(_______/(______/\n_ _ _ _ _ _ _ _\n/  /  /  /  /  /  /  / \n( p )( r )( e )( s )( e )( n )( t )( s )\n_/ _/ _/ _/ _/ _/ _/ _/\n\nDark.House.2014.BDRiP.AC3-5.1.XviD-AXED\n\nPOSTER: \n\nIMDB: &lt;a href=&quot;\nhttp://www.imdb.com/title/tt1385543/&quot; rel=&quot;nofollow&quot; target=&quot;_NEW&quot;&gt;\nhttp://www.imdb.com/title/tt1385543/&lt;/a&gt;\n\nPLOT INFO:\nWhen Nick Di Santo learns that his father is not only alive but can possibly reveal the origin of his son's dark gift, he sets out on a trip that takes him to an abandoned mansion he thought only existed in his childhood imagination\n\nMedia Info:\nGeneral\nComplete name: Dark.House.2014.BDRiP.AC3-5.1.XviD-AXED.avi\nFormat: AVI\nFormat/Info: Audio Video Interleave\nFile size: 1.37 GiB\nDuration: 1h 42mn\nOverall bit rate: 1 910 Kbps\n\nVideo\nID: 0\nFormat: MPEG-4 Visual\nFormat profile: Advanced Simple@L5\nFormat settings, BVOP: 2\nFormat settings, QPel: No\nFormat settings, GMC: No warppoints\nFormat settings, Matrix: Default (H.263)\nMuxing mode: Packed bitstream\nCodec ID: XVID\nCodec ID/Hint: XviD\nDuration: 1h 42mn\nBit rate: 1 454 Kbps\nWidth: 720 pixels\nHeight: 304 pixels\nDisplay aspect ratio: 2.35:1\nFrame rate: 23.976 fps\nColor space: YUV\nChroma subsampling: 4:2:0\nBit depth: 8 bits\nScan type: Progressive\nCompression mode: Lossy\nBits/(Pixel*Frame): 0.277\nStream size: 1.04 GiB (76%)\nWriting library: XviD 64\n\nAudio\nID: 1\nFormat: AC-3\nFormat/Info: Audio Coding 3\nMode extension: CM (complete main)\nFormat settings, Endianness: Big\nCodec ID: 2000\nDuration: 1h 42mn\nBit rate mode: Constant\nBit rate: 448 Kbps\nChannel(s): 6 channels\nChannel positions: Front: L C R, Side: L R, LFE\nSampling rate: 48.0 KHz\nBit depth: 16 bits\nCompression mode: Lossy\nStream size: 329 MiB (23%)\nAlignment: Aligned on interleaves\nInterleave, duration: 64 ms (1.53 video frames)\nInterleave, preload duration: 192 ms\nTitle: dkhs\n\nSOURCE:\nRetail RA Blu-Ray DISC\n\nNOTES:\nEnjoy a nice xvid encode from the Retail RA Blu-Ray\n\nAXED! Because we said so\n\n\nPoster:\n\n &lt;a href=&quot;\nhttp://i.imgur.com/eA6sxLy.jpg&quot; rel=&quot;nofollow&quot; target=&quot;_NEW&quot;&gt;\nhttp://i.imgur.com/eA6sxLy.jpg&lt;/a&gt;\n\n\nScreenshots:\n\n &lt;a href=&quot;\nhttp://i.imgur.com/AxUHx8q.jpg&quot; rel=&quot;nofollow&quot; target=&quot;_NEW&quot;&gt;\nhttp://i.imgur.com/AxUHx8q.jpg&lt;/a&gt;\n\n\nSEED AND ENJOY!","torrent":{"xt":"urn:btih:b9dfc359bbae83f5eef585ac84195b6ae4089924","amp;dn":"Dark+House+2014+BDRiP+AC3-5+1+XviD-AXED","amp;tr":["udp%3A%2F%2Ftracker.openbittorrent.com%3A80","udp%3A%2F%2Fopen.demonii.com%3A1337","udp%3A%2F%2Ftracker.coppersurfer.tk%3A6969","udp%3A%2F%2Fexodus.desync.com%3A6969"],"infoHash":"b9dfc359bbae83f5eef585ac84195b6ae4089924","infoHashBuffer":{"type":"Buffer","data":[185,223,195,89,187,174,131,245,238,245,133,172,132,25,91,106,228,8,153,36]},"announce":[],"urlList":[]}}